<svg xmlns="http://www.w3.org/2000/svg" viewBox="0 0 1936 1936"><defs><style>.a{fill:none;stroke:#000;stroke-miterlimit:10;stroke-width:8px;}</style></defs><title>Untitled-1</title><circle class="a" cx="8" cy="8" r="4"/><circle class="a" cx="72" cy="8" r="4"/><circle class="a" cx="136" cy="8" r="4"/><circle class="a" cx="200" cy="8" r="4"/><circle class="a" cx="264" cy="8" r="4"/><circle class="a" cx="328" cy="8" r="4"/><circle class="a" cx="392" cy="8" r="4"/><circle class="a" cx="456" cy="8" r="4"/><circle class="a" cx="520" cy="8" r="4"/><circle class="a" cx="584" cy="8" r="4"/><circle class="a" cx="648" cy="8" r="4"/><circle class="a" cx="712" cy="8" r="4"/><circle class="a" cx="776" cy="8" r="4"/><circle class="a" cx="840" cy="8" r="4"/><circle class="a" cx="904" cy="8" r="4"/><circle class="a" cx="968" cy="8" r="4"/><circle class="a" cx="1032" cy="8" r="4"/><circle class="a" cx="1096" cy="8" r="4"/><circle class="a" cx="1160" cy="8" r="4"/><circle class="a" cx="1224" cy="8" r="4"/><circle class="a" cx="1288" cy="8" r="4"/><circle class="a" cx="1352" cy="8" r="4"/><circle class="a" cx="1416" cy="8" r="4"/><circle class="a" cx="1480" cy="8" r="4"/><circle class="a" cx="1544" cy="8" r="4"/><circle class="a" cx="1608" cy="8" r="4"/><circle class="a" cx="1672" cy="8" r="4"/><circle class="a" cx="1736" cy="8" r="4"/><circle class="a" cx="1800" cy="8" r="4"/><circle class="a" cx="1864" cy="8" r="4"/><circle class="a" cx="1928" cy="8" r="4"/><circle class="a" cx="8" cy="72" r="4"/><circle class="a" cx="72" cy="72" r="4"/><circle class="a" cx="136" cy="72" r="4"/><circle class="a" cx="200" cy="72" r="4"/><circle class="a" cx="264" cy="72" r="4"/><circle class="a" cx="328" cy="72" r="4"/><circle class="a" cx="392" cy="72" r="4"/><circle class="a" cx="456" cy="72" r="4"/><circle class="a" cx="520" cy="72" r="4"/><circle class="a" cx="584" cy="72" r="4"/><circle class="a" cx="648" cy="72" r="4"/><circle class="a" cx="712" cy="72" r="4"/><circle class="a" cx="776" cy="72" r="4"/><circle class="a" cx="840" cy="72" r="4"/><circle class="a" cx="904" cy="72" r="4"/><circle class="a" cx="968" cy="72" r="4"/><circle class="a" cx="1032" cy="72" r="4"/><circle class="a" cx="1096" cy="72" r="4"/><circle class="a" cx="1160" cy="72" r="4"/><circle class="a" cx="1224" cy="72" r="4"/><circle class="a" cx="1288" cy="72" r="4"/><circle class="a" cx="1352" cy="72" r="4"/><circle class="a" cx="1416" cy="72" r="4"/><circle class="a" cx="1480" cy="72" r="4"/><circle class="a" cx="1544" cy="72" r="4"/><circle class="a" cx="1608" cy="72" r="4"/><circle class="a" cx="1672" cy="72" r="4"/><circle class="a" cx="1736" cy="72" r="4"/><circle class="a" cx="1800" cy="72" r="4"/><circle class="a" cx="1864" cy="72" r="4"/><circle class="a" cx="1928" cy="72" r="4"/><circle class="a" cx="8" cy="136" r="4"/><circle class="a" cx="72" cy="136" r="4"/><circle class="a" cx="136" cy="136" r="4"/><circle class="a" cx="200" cy="136" r="4"/><circle class="a" cx="264" cy="136" r="4"/><circle class="a" cx="328" cy="136" r="4"/><circle class="a" cx="392" cy="136" r="4"/><circle class="a" cx="456" cy="136" r="4"/><circle class="a" cx="520" cy="136" r="4"/><circle class="a" cx="584" cy="136" r="4"/><circle class="a" cx="648" cy="136" r="4"/><circle class="a" cx="712" cy="136" r="4"/><circle class="a" cx="776" cy="136" r="4"/><circle class="a" cx="840" cy="136" r="4"/><circle class="a" cx="904" cy="136" r="4"/><circle class="a" cx="968" cy="136" r="4"/><circle class="a" cx="1032" cy="136" r="4"/><circle class="a" cx="1096" cy="136" r="4"/><circle class="a" cx="1160" cy="136" r="4"/><circle class="a" cx="1224" cy="136" r="4"/><circle class="a" cx="1288" cy="136" r="4"/><circle class="a" cx="1352" cy="136" r="4"/><circle class="a" cx="1416" cy="136" r="4"/><circle class="a" cx="1480" cy="136" r="4"/><circle class="a" cx="1544" cy="136" r="4"/><circle class="a" cx="1608" cy="136" r="4"/><circle class="a" cx="1672" cy="136" r="4"/><circle class="a" cx="1736" cy="136" r="4"/><circle class="a" cx="1800" cy="136" r="4"/><circle class="a" cx="1864" cy="136" r="4"/><circle class="a" cx="1928" cy="136" r="4"/><circle class="a" cx="8" cy="200" r="4"/><circle class="a" cx="72" cy="200" r="4"/><circle class="a" cx="136" cy="200" r="4"/><circle class="a" cx="200" cy="200" r="4"/><circle class="a" cx="264" cy="200" r="4"/><circle class="a" cx="328" cy="200" r="4"/><circle class="a" cx="392" cy="200" r="4"/><circle class="a" cx="456" cy="200" r="4"/><circle class="a" cx="520" cy="200" r="4"/><circle class="a" cx="584" cy="200" r="4"/><circle class="a" cx="648" cy="200" r="4"/><circle class="a" cx="712" cy="200" r="4"/><circle class="a" cx="776" cy="200" r="4"/><circle class="a" cx="840" cy="200" r="4"/><circle class="a" cx="904" cy="200" r="4"/><circle class="a" cx="968" cy="200" r="4"/><circle class="a" cx="1032" cy="200" r="4"/><circle class="a" cx="1096" cy="200" r="4"/><circle class="a" cx="1160" cy="200" r="4"/><circle class="a" cx="1224" cy="200" r="4"/><circle class="a" cx="1288" cy="200" r="4"/><circle class="a" cx="1352" cy="200" r="4"/><circle class="a" cx="1416" cy="200" r="4"/><circle class="a" cx="1480" cy="200" r="4"/><circle class="a" cx="1544" cy="200" r="4"/><circle class="a" cx="1608" cy="200" r="4"/><circle class="a" cx="1672" cy="200" r="4"/><circle class="a" cx="1736" cy="200" r="4"/><circle class="a" cx="1800" cy="200" r="4"/><circle class="a" cx="1864" cy="200" r="4"/><circle class="a" cx="1928" cy="200" r="4"/><circle class="a" cx="8" cy="264" r="4"/><circle class="a" cx="72" cy="264" r="4"/><circle class="a" cx="136" cy="264" r="4"/><circle class="a" cx="200" cy="264" r="4"/><circle class="a" cx="264" cy="264" r="4"/><circle class="a" cx="328" cy="264" r="4"/><circle class="a" cx="392" cy="264" r="4"/><circle class="a" cx="456" cy="264" r="4"/><circle class="a" cx="520" cy="264" r="4"/><circle class="a" cx="584" cy="264" r="4"/><circle class="a" cx="648" cy="264" r="4"/><circle class="a" cx="712" cy="264" r="4"/><circle class="a" cx="776" cy="264" r="4"/><circle class="a" cx="840" cy="264" r="4"/><circle class="a" cx="904" cy="264" r="4"/><circle class="a" cx="968" cy="264" r="4"/><circle class="a" cx="1032" cy="264" r="4"/><circle class="a" cx="1096" cy="264" r="4"/><circle class="a" cx="1160" cy="264" r="4"/><circle class="a" cx="1224" cy="264" r="4"/><circle class="a" cx="1288" cy="264" r="4"/><circle class="a" cx="1352" cy="264" r="4"/><circle class="a" cx="1416" cy="264" r="4"/><circle class="a" cx="1480" cy="264" r="4"/><circle class="a" cx="1544" cy="264" r="4"/><circle class="a" cx="1608" cy="264" r="4"/><circle class="a" cx="1672" cy="264" r="4"/><circle class="a" cx="1736" cy="264" r="4"/><circle class="a" cx="1800" cy="264" r="4"/><circle class="a" cx="1864" cy="264" r="4"/><circle class="a" cx="1928" cy="264" r="4"/><circle class="a" cx="8" cy="328" r="4"/><circle class="a" cx="72" cy="328" r="4"/><circle class="a" cx="136" cy="328" r="4"/><circle class="a" cx="200" cy="328" r="4"/><circle class="a" cx="264" cy="328" r="4"/><circle class="a" cx="328" cy="328" r="4"/><circle class="a" cx="392" cy="328" r="4"/><circle class="a" cx="456" cy="328" r="4"/><circle class="a" cx="520" cy="328" r="4"/><circle class="a" cx="584" cy="328" r="4"/><circle class="a" cx="648" cy="328" r="4"/><circle class="a" cx="712" cy="328" r="4"/><circle class="a" cx="776" cy="328" r="4"/><circle class="a" cx="840" cy="328" r="4"/><circle class="a" cx="904" cy="328" r="4"/><circle class="a" cx="968" cy="328" r="4"/><circle class="a" cx="1032" cy="328" r="4"/><circle class="a" cx="1096" cy="328" r="4"/><circle class="a" cx="1160" cy="328" r="4"/><circle class="a" cx="1224" cy="328" r="4"/><circle class="a" cx="1288" cy="328" r="4"/><circle class="a" cx="1352" cy="328" r="4"/><circle class="a" cx="1416" cy="328" r="4"/><circle class="a" cx="1480" cy="328" r="4"/><circle class="a" cx="1544" cy="328" r="4"/><circle class="a" cx="1608" cy="328" r="4"/><circle class="a" cx="1672" cy="328" r="4"/><circle class="a" cx="1736" cy="328" r="4"/><circle class="a" cx="1800" cy="328" r="4"/><circle class="a" cx="1864" cy="328" r="4"/><circle class="a" cx="1928" cy="328" r="4"/><circle class="a" cx="8" cy="392" r="4"/><circle class="a" cx="72" cy="392" r="4"/><circle class="a" cx="136" cy="392" r="4"/><circle class="a" cx="200" cy="392" r="4"/><circle class="a" cx="264" cy="392" r="4"/><circle class="a" cx="328" cy="392" r="4"/><circle class="a" cx="392" cy="392" r="4"/><circle class="a" cx="456" cy="392" r="4"/><circle class="a" cx="520" cy="392" r="4"/><circle class="a" cx="584" cy="392" r="4"/><circle class="a" cx="648" cy="392" r="4"/><circle class="a" cx="712" cy="392" r="4"/><circle class="a" cx="776" cy="392" r="4"/><circle class="a" cx="840" cy="392" r="4"/><circle class="a" cx="904" cy="392" r="4"/><circle class="a" cx="968" cy="392" r="4"/><circle class="a" cx="1032" cy="392" r="4"/><circle class="a" cx="1096" cy="392" r="4"/><circle class="a" cx="1160" cy="392" r="4"/><circle class="a" cx="1224" cy="392" r="4"/><circle class="a" cx="1288" cy="392" r="4"/><circle class="a" cx="1352" cy="392" r="4"/><circle class="a" cx="1416" cy="392" r="4"/><circle class="a" cx="1480" cy="392" r="4"/><circle class="a" cx="1544" cy="392" r="4"/><circle class="a" cx="1608" cy="392" r="4"/><circle class="a" cx="1672" cy="392" r="4"/><circle class="a" cx="1736" cy="392" r="4"/><circle class="a" cx="1800" cy="392" r="4"/><circle class="a" cx="1864" cy="392" r="4"/><circle class="a" cx="1928" cy="392" r="4"/><circle class="a" cx="8" cy="456" r="4"/><circle class="a" cx="72" cy="456" r="4"/><circle class="a" cx="136" cy="456" r="4"/><circle class="a" cx="200" cy="456" r="4"/><circle class="a" cx="264" cy="456" r="4"/><circle class="a" cx="328" cy="456" r="4"/><circle class="a" cx="392" cy="456" r="4"/><circle class="a" cx="456" cy="456" r="4"/><circle class="a" cx="520" cy="456" r="4"/><circle class="a" cx="584" cy="456" r="4"/><circle class="a" cx="648" cy="456" r="4"/><circle class="a" cx="712" cy="456" r="4"/><circle class="a" cx="776" cy="456" r="4"/><circle class="a" cx="840" cy="456" r="4"/><circle class="a" cx="904" cy="456" r="4"/><circle class="a" cx="968" cy="456" r="4"/><circle class="a" cx="1032" cy="456" r="4"/><circle class="a" cx="1096" cy="456" r="4"/><circle class="a" cx="1160" cy="456" r="4"/><circle class="a" cx="1224" cy="456" r="4"/><circle class="a" cx="1288" cy="456" r="4"/><circle class="a" cx="1352" cy="456" r="4"/><circle class="a" cx="1416" cy="456" r="4"/><circle class="a" cx="1480" cy="456" r="4"/><circle class="a" cx="1544" cy="456" r="4"/><circle class="a" cx="1608" cy="456" r="4"/><circle class="a" cx="1672" cy="456" r="4"/><circle class="a" cx="1736" cy="456" r="4"/><circle class="a" cx="1800" cy="456" r="4"/><circle class="a" cx="1864" cy="456" r="4"/><circle class="a" cx="1928" cy="456" r="4"/><circle class="a" cx="8" cy="520" r="4"/><circle class="a" cx="72" cy="520" r="4"/><circle class="a" cx="136" cy="520" r="4"/><circle class="a" cx="200" cy="520" r="4"/><circle class="a" cx="264" cy="520" r="4"/><circle class="a" cx="328" cy="520" r="4"/><circle class="a" cx="392" cy="520" r="4"/><circle class="a" cx="456" cy="520" r="4"/><circle class="a" cx="520" cy="520" r="4"/><circle class="a" cx="584" cy="520" r="4"/><circle class="a" cx="648" cy="520" r="4"/><circle class="a" cx="712" cy="520" r="4"/><circle class="a" cx="776" cy="520" r="4"/><circle class="a" cx="840" cy="520" r="4"/><circle class="a" cx="904" cy="520" r="4"/><circle class="a" cx="968" cy="520" r="4"/><circle class="a" cx="1032" cy="520" r="4"/><circle class="a" cx="1096" cy="520" r="4"/><circle class="a" cx="1160" cy="520" r="4"/><circle class="a" cx="1224" cy="520" r="4"/><circle class="a" cx="1288" cy="520" r="4"/><circle class="a" cx="1352" cy="520" r="4"/><circle class="a" cx="1416" cy="520" r="4"/><circle class="a" cx="1480" cy="520" r="4"/><circle class="a" cx="1544" cy="520" r="4"/><circle class="a" cx="1608" cy="520" r="4"/><circle class="a" cx="1672" cy="520" r="4"/><circle class="a" cx="1736" cy="520" r="4"/><circle class="a" cx="1800" cy="520" r="4"/><circle class="a" cx="1864" cy="520" r="4"/><circle class="a" cx="1928" cy="520" r="4"/><circle class="a" cx="8" cy="584" r="4"/><circle class="a" cx="72" cy="584" r="4"/><circle class="a" cx="136" cy="584" r="4"/><circle class="a" cx="200" cy="584" r="4"/><circle class="a" cx="264" cy="584" r="4"/><circle class="a" cx="328" cy="584" r="4"/><circle class="a" cx="392" cy="584" r="4"/><circle class="a" cx="456" cy="584" r="4"/><circle class="a" cx="520" cy="584" r="4"/><circle class="a" cx="584" cy="584" r="4"/><circle class="a" cx="648" cy="584" r="4"/><circle class="a" cx="712" cy="584" r="4"/><circle class="a" cx="776" cy="584" r="4"/><circle class="a" cx="840" cy="584" r="4"/><circle class="a" cx="904" cy="584" r="4"/><circle class="a" cx="968" cy="584" r="4"/><circle class="a" cx="1032" cy="584" r="4"/><circle class="a" cx="1096" cy="584" r="4"/><circle class="a" cx="1160" cy="584" r="4"/><circle class="a" cx="1224" cy="584" r="4"/><circle class="a" cx="1288" cy="584" r="4"/><circle class="a" cx="1352" cy="584" r="4"/><circle class="a" cx="1416" cy="584" r="4"/><circle class="a" cx="1480" cy="584" r="4"/><circle class="a" cx="1544" cy="584" r="4"/><circle class="a" cx="1608" cy="584" r="4"/><circle class="a" cx="1672" cy="584" r="4"/><circle class="a" cx="1736" cy="584" r="4"/><circle class="a" cx="1800" cy="584" r="4"/><circle class="a" cx="1864" cy="584" r="4"/><circle class="a" cx="1928" cy="584" r="4"/><circle class="a" cx="8" cy="648" r="4"/><circle class="a" cx="72" cy="648" r="4"/><circle class="a" cx="136" cy="648" r="4"/><circle class="a" cx="200" cy="648" r="4"/><circle class="a" cx="264" cy="648" r="4"/><circle class="a" cx="328" cy="648" r="4"/><circle class="a" cx="392" cy="648" r="4"/><circle class="a" cx="456" cy="648" r="4"/><circle class="a" cx="520" cy="648" r="4"/><circle class="a" cx="584" cy="648" r="4"/><circle class="a" cx="648" cy="648" r="4"/><circle class="a" cx="712" cy="648" r="4"/><circle class="a" cx="776" cy="648" r="4"/><circle class="a" cx="840" cy="648" r="4"/><circle class="a" cx="904" cy="648" r="4"/><circle class="a" cx="968" cy="648" r="4"/><circle class="a" cx="1032" cy="648" r="4"/><circle class="a" cx="1096" cy="648" r="4"/><circle class="a" cx="1160" cy="648" r="4"/><circle class="a" cx="1224" cy="648" r="4"/><circle class="a" cx="1288" cy="648" r="4"/><circle class="a" cx="1352" cy="648" r="4"/><circle class="a" cx="1416" cy="648" r="4"/><circle class="a" cx="1480" cy="648" r="4"/><circle class="a" cx="1544" cy="648" r="4"/><circle class="a" cx="1608" cy="648" r="4"/><circle class="a" cx="1672" cy="648" r="4"/><circle class="a" cx="1736" cy="648" r="4"/><circle class="a" cx="1800" cy="648" r="4"/><circle class="a" cx="1864" cy="648" r="4"/><circle class="a" cx="1928" cy="648" r="4"/><circle class="a" cx="8" cy="712" r="4"/><circle class="a" cx="72" cy="712" r="4"/><circle class="a" cx="136" cy="712" r="4"/><circle class="a" cx="200" cy="712" r="4"/><circle class="a" cx="264" cy="712" r="4"/><circle class="a" cx="328" cy="712" r="4"/><circle class="a" cx="392" cy="712" r="4"/><circle class="a" cx="456" cy="712" r="4"/><circle class="a" cx="520" cy="712" r="4"/><circle class="a" cx="584" cy="712" r="4"/><circle class="a" cx="648" cy="712" r="4"/><circle class="a" cx="712" cy="712" r="4"/><circle class="a" cx="776" cy="712" r="4"/><circle class="a" cx="840" cy="712" r="4"/><circle class="a" cx="904" cy="712" r="4"/><circle class="a" cx="968" cy="712" r="4"/><circle class="a" cx="1032" cy="712" r="4"/><circle class="a" cx="1096" cy="712" r="4"/><circle class="a" cx="1160" cy="712" r="4"/><circle class="a" cx="1224" cy="712" r="4"/><circle class="a" cx="1288" cy="712" r="4"/><circle class="a" cx="1352" cy="712" r="4"/><circle class="a" cx="1416" cy="712" r="4"/><circle class="a" cx="1480" cy="712" r="4"/><circle class="a" cx="1544" cy="712" r="4"/><circle class="a" cx="1608" cy="712" r="4"/><circle class="a" cx="1672" cy="712" r="4"/><circle class="a" cx="1736" cy="712" r="4"/><circle class="a" cx="1800" cy="712" r="4"/><circle class="a" cx="1864" cy="712" r="4"/><circle class="a" cx="1928" cy="712" r="4"/><circle class="a" cx="8" cy="776" r="4"/><circle class="a" cx="72" cy="776" r="4"/><circle class="a" cx="136" cy="776" r="4"/><circle class="a" cx="200" cy="776" r="4"/><circle class="a" cx="264" cy="776" r="4"/><circle class="a" cx="328" cy="776" r="4"/><circle class="a" cx="392" cy="776" r="4"/><circle class="a" cx="456" cy="776" r="4"/><circle class="a" cx="520" cy="776" r="4"/><circle class="a" cx="584" cy="776" r="4"/><circle class="a" cx="648" cy="776" r="4"/><circle class="a" cx="712" cy="776" r="4"/><circle class="a" cx="776" cy="776" r="4"/><circle class="a" cx="840" cy="776" r="4"/><circle class="a" cx="904" cy="776" r="4"/><circle class="a" cx="968" cy="776" r="4"/><circle class="a" cx="1032" cy="776" r="4"/><circle class="a" cx="1096" cy="776" r="4"/><circle class="a" cx="1160" cy="776" r="4"/><circle class="a" cx="1224" cy="776" r="4"/><circle class="a" cx="1288" cy="776" r="4"/><circle class="a" cx="1352" cy="776" r="4"/><circle class="a" cx="1416" cy="776" r="4"/><circle class="a" cx="1480" cy="776" r="4"/><circle class="a" cx="1544" cy="776" r="4"/><circle class="a" cx="1608" cy="776" r="4"/><circle class="a" cx="1672" cy="776" r="4"/><circle class="a" cx="1736" cy="776" r="4"/><circle class="a" cx="1800" cy="776" r="4"/><circle class="a" cx="1864" cy="776" r="4"/><circle class="a" cx="1928" cy="776" r="4"/><circle class="a" cx="8" cy="840" r="4"/><circle class="a" cx="72" cy="840" r="4"/><circle class="a" cx="136" cy="840" r="4"/><circle class="a" cx="200" cy="840" r="4"/><circle class="a" cx="264" cy="840" r="4"/><circle class="a" cx="328" cy="840" r="4"/><circle class="a" cx="392" cy="840" r="4"/><circle class="a" cx="456" cy="840" r="4"/><circle class="a" cx="520" cy="840" r="4"/><circle class="a" cx="584" cy="840" r="4"/><circle class="a" cx="648" cy="840" r="4"/><circle class="a" cx="712" cy="840" r="4"/><circle class="a" cx="776" cy="840" r="4"/><circle class="a" cx="840" cy="840" r="4"/><circle class="a" cx="904" cy="840" r="4"/><circle class="a" cx="968" cy="840" r="4"/><circle class="a" cx="1032" cy="840" r="4"/><circle class="a" cx="1096" cy="840" r="4"/><circle class="a" cx="1160" cy="840" r="4"/><circle class="a" cx="1224" cy="840" r="4"/><circle class="a" cx="1288" cy="840" r="4"/><circle class="a" cx="1352" cy="840" r="4"/><circle class="a" cx="1416" cy="840" r="4"/><circle class="a" cx="1480" cy="840" r="4"/><circle class="a" cx="1544" cy="840" r="4"/><circle class="a" cx="1608" cy="840" r="4"/><circle class="a" cx="1672" cy="840" r="4"/><circle class="a" cx="1736" cy="840" r="4"/><circle class="a" cx="1800" cy="840" r="4"/><circle class="a" cx="1864" cy="840" r="4"/><circle class="a" cx="1928" cy="840" r="4"/><circle class="a" cx="8" cy="904" r="4"/><circle class="a" cx="72" cy="904" r="4"/><circle class="a" cx="136" cy="904" r="4"/><circle class="a" cx="200" cy="904" r="4"/><circle class="a" cx="264" cy="904" r="4"/><circle class="a" cx="328" cy="904" r="4"/><circle class="a" cx="392" cy="904" r="4"/><circle class="a" cx="456" cy="904" r="4"/><circle class="a" cx="520" cy="904" r="4"/><circle class="a" cx="584" cy="904" r="4"/><circle class="a" cx="648" cy="904" r="4"/><circle class="a" cx="712" cy="904" r="4"/><circle class="a" cx="776" cy="904" r="4"/><circle class="a" cx="840" cy="904" r="4"/><circle class="a" cx="904" cy="904" r="4"/><circle class="a" cx="968" cy="904" r="4"/><circle class="a" cx="1032" cy="904" r="4"/><circle class="a" cx="1096" cy="904" r="4"/><circle class="a" cx="1160" cy="904" r="4"/><circle class="a" cx="1224" cy="904" r="4"/><circle class="a" cx="1288" cy="904" r="4"/><circle class="a" cx="1352" cy="904" r="4"/><circle class="a" cx="1416" cy="904" r="4"/><circle class="a" cx="1480" cy="904" r="4"/><circle class="a" cx="1544" cy="904" r="4"/><circle class="a" cx="1608" cy="904" r="4"/><circle class="a" cx="1672" cy="904" r="4"/><circle class="a" cx="1736" cy="904" r="4"/><circle class="a" cx="1800" cy="904" r="4"/><circle class="a" cx="1864" cy="904" r="4"/><circle class="a" cx="1928" cy="904" r="4"/><circle class="a" cx="8" cy="968" r="4"/><circle class="a" cx="72" cy="968" r="4"/><circle class="a" cx="136" cy="968" r="4"/><circle class="a" cx="200" cy="968" r="4"/><circle class="a" cx="264" cy="968" r="4"/><circle class="a" cx="328" cy="968" r="4"/><circle class="a" cx="392" cy="968" r="4"/><circle class="a" cx="456" cy="968" r="4"/><circle class="a" cx="520" cy="968" r="4"/><circle class="a" cx="584" cy="968" r="4"/><circle class="a" cx="648" cy="968" r="4"/><circle class="a" cx="712" cy="968" r="4"/><circle class="a" cx="776" cy="968" r="4"/><circle class="a" cx="840" cy="968" r="4"/><circle class="a" cx="904" cy="968" r="4"/><circle class="a" cx="968" cy="968" r="4"/><circle class="a" cx="1032" cy="968" r="4"/><circle class="a" cx="1096" cy="968" r="4"/><circle class="a" cx="1160" cy="968" r="4"/><circle class="a" cx="1224" cy="968" r="4"/><circle class="a" cx="1288" cy="968" r="4"/><circle class="a" cx="1352" cy="968" r="4"/><circle class="a" cx="1416" cy="968" r="4"/><circle class="a" cx="1480" cy="968" r="4"/><circle class="a" cx="1544" cy="968" r="4"/><circle class="a" cx="1608" cy="968" r="4"/><circle class="a" cx="1672" cy="968" r="4"/><circle class="a" cx="1736" cy="968" r="4"/><circle class="a" cx="1800" cy="968" r="4"/><circle class="a" cx="1864" cy="968" r="4"/><circle class="a" cx="1928" cy="968" r="4"/><circle class="a" cx="8" cy="1032" r="4"/><circle class="a" cx="72" cy="1032" r="4"/><circle class="a" cx="136" cy="1032" r="4"/><circle class="a" cx="200" cy="1032" r="4"/><circle class="a" cx="264" cy="1032" r="4"/><circle class="a" cx="328" cy="1032" r="4"/><circle class="a" cx="392" cy="1032" r="4"/><circle class="a" cx="456" cy="1032" r="4"/><circle class="a" cx="520" cy="1032" r="4"/><circle class="a" cx="584" cy="1032" r="4"/><circle class="a" cx="648" cy="1032" r="4"/><circle class="a" cx="712" cy="1032" r="4"/><circle class="a" cx="776" cy="1032" r="4"/><circle class="a" cx="840" cy="1032" r="4"/><circle class="a" cx="904" cy="1032" r="4"/><circle class="a" cx="968" cy="1032" r="4"/><circle class="a" cx="1032" cy="1032" r="4"/><circle class="a" cx="1096" cy="1032" r="4"/><circle class="a" cx="1160" cy="1032" r="4"/><circle class="a" cx="1224" cy="1032" r="4"/><circle class="a" cx="1288" cy="1032" r="4"/><circle class="a" cx="1352" cy="1032" r="4"/><circle class="a" cx="1416" cy="1032" r="4"/><circle class="a" cx="1480" cy="1032" r="4"/><circle class="a" cx="1544" cy="1032" r="4"/><circle class="a" cx="1608" cy="1032" r="4"/><circle class="a" cx="1672" cy="1032" r="4"/><circle class="a" cx="1736" cy="1032" r="4"/><circle class="a" cx="1800" cy="1032" r="4"/><circle class="a" cx="1864" cy="1032" r="4"/><circle class="a" cx="1928" cy="1032" r="4"/><circle class="a" cx="8" cy="1096" r="4"/><circle class="a" cx="72" cy="1096" r="4"/><circle class="a" cx="136" cy="1096" r="4"/><circle class="a" cx="200" cy="1096" r="4"/><circle class="a" cx="264" cy="1096" r="4"/><circle class="a" cx="328" cy="1096" r="4"/><circle class="a" cx="392" cy="1096" r="4"/><circle class="a" cx="456" cy="1096" r="4"/><circle class="a" cx="520" cy="1096" r="4"/><circle class="a" cx="584" cy="1096" r="4"/><circle class="a" cx="648" cy="1096" r="4"/><circle class="a" cx="712" cy="1096" r="4"/><circle class="a" cx="776" cy="1096" r="4"/><circle class="a" cx="840" cy="1096" r="4"/><circle class="a" cx="904" cy="1096" r="4"/><circle class="a" cx="968" cy="1096" r="4"/><circle class="a" cx="1032" cy="1096" r="4"/><circle class="a" cx="1096" cy="1096" r="4"/><circle class="a" cx="1160" cy="1096" r="4"/><circle class="a" cx="1224" cy="1096" r="4"/><circle class="a" cx="1288" cy="1096" r="4"/><circle class="a" cx="1352" cy="1096" r="4"/><circle class="a" cx="1416" cy="1096" r="4"/><circle class="a" cx="1480" cy="1096" r="4"/><circle class="a" cx="1544" cy="1096" r="4"/><circle class="a" cx="1608" cy="1096" r="4"/><circle class="a" cx="1672" cy="1096" r="4"/><circle class="a" cx="1736" cy="1096" r="4"/><circle class="a" cx="1800" cy="1096" r="4"/><circle class="a" cx="1864" cy="1096" r="4"/><circle class="a" cx="1928" cy="1096" r="4"/><circle class="a" cx="8" cy="1160" r="4"/><circle class="a" cx="72" cy="1160" r="4"/><circle class="a" cx="136" cy="1160" r="4"/><circle class="a" cx="200" cy="1160" r="4"/><circle class="a" cx="264" cy="1160" r="4"/><circle class="a" cx="328" cy="1160" r="4"/><circle class="a" cx="392" cy="1160" r="4"/><circle class="a" cx="456" cy="1160" r="4"/><circle class="a" cx="520" cy="1160" r="4"/><circle class="a" cx="584" cy="1160" r="4"/><circle class="a" cx="648" cy="1160" r="4"/><circle class="a" cx="712" cy="1160" r="4"/><circle class="a" cx="776" cy="1160" r="4"/><circle class="a" cx="840" cy="1160" r="4"/><circle class="a" cx="904" cy="1160" r="4"/><circle class="a" cx="968" cy="1160" r="4"/><circle class="a" cx="1032" cy="1160" r="4"/><circle class="a" cx="1096" cy="1160" r="4"/><circle class="a" cx="1160" cy="1160" r="4"/><circle class="a" cx="1224" cy="1160" r="4"/><circle class="a" cx="1288" cy="1160" r="4"/><circle class="a" cx="1352" cy="1160" r="4"/><circle class="a" cx="1416" cy="1160" r="4"/><circle class="a" cx="1480" cy="1160" r="4"/><circle class="a" cx="1544" cy="1160" r="4"/><circle class="a" cx="1608" cy="1160" r="4"/><circle class="a" cx="1672" cy="1160" r="4"/><circle class="a" cx="1736" cy="1160" r="4"/><circle class="a" cx="1800" cy="1160" r="4"/><circle class="a" cx="1864" cy="1160" r="4"/><circle class="a" cx="1928" cy="1160" r="4"/><circle class="a" cx="8" cy="1224" r="4"/><circle class="a" cx="72" cy="1224" r="4"/><circle class="a" cx="136" cy="1224" r="4"/><circle class="a" cx="200" cy="1224" r="4"/><circle class="a" cx="264" cy="1224" r="4"/><circle class="a" cx="328" cy="1224" r="4"/><circle class="a" cx="392" cy="1224" r="4"/><circle class="a" cx="456" cy="1224" r="4"/><circle class="a" cx="520" cy="1224" r="4"/><circle class="a" cx="584" cy="1224" r="4"/><circle class="a" cx="648" cy="1224" r="4"/><circle class="a" cx="712" cy="1224" r="4"/><circle class="a" cx="776" cy="1224" r="4"/><circle class="a" cx="840" cy="1224" r="4"/><circle class="a" cx="904" cy="1224" r="4"/><circle class="a" cx="968" cy="1224" r="4"/><circle class="a" cx="1032" cy="1224" r="4"/><circle class="a" cx="1096" cy="1224" r="4"/><circle class="a" cx="1160" cy="1224" r="4"/><circle class="a" cx="1224" cy="1224" r="4"/><circle class="a" cx="1288" cy="1224" r="4"/><circle class="a" cx="1352" cy="1224" r="4"/><circle class="a" cx="1416" cy="1224" r="4"/><circle class="a" cx="1480" cy="1224" r="4"/><circle class="a" cx="1544" cy="1224" r="4"/><circle class="a" cx="1608" cy="1224" r="4"/><circle class="a" cx="1672" cy="1224" r="4"/><circle class="a" cx="1736" cy="1224" r="4"/><circle class="a" cx="1800" cy="1224" r="4"/><circle class="a" cx="1864" cy="1224" r="4"/><circle class="a" cx="1928" cy="1224" r="4"/><circle class="a" cx="8" cy="1288" r="4"/><circle class="a" cx="72" cy="1288" r="4"/><circle class="a" cx="136" cy="1288" r="4"/><circle class="a" cx="200" cy="1288" r="4"/><circle class="a" cx="264" cy="1288" r="4"/><circle class="a" cx="328" cy="1288" r="4"/><circle class="a" cx="392" cy="1288" r="4"/><circle class="a" cx="456" cy="1288" r="4"/><circle class="a" cx="520" cy="1288" r="4"/><circle class="a" cx="584" cy="1288" r="4"/><circle class="a" cx="648" cy="1288" r="4"/><circle class="a" cx="712" cy="1288" r="4"/><circle class="a" cx="776" cy="1288" r="4"/><circle class="a" cx="840" cy="1288" r="4"/><circle class="a" cx="904" cy="1288" r="4"/><circle class="a" cx="968" cy="1288" r="4"/><circle class="a" cx="1032" cy="1288" r="4"/><circle class="a" cx="1096" cy="1288" r="4"/><circle class="a" cx="1160" cy="1288" r="4"/><circle class="a" cx="1224" cy="1288" r="4"/><circle class="a" cx="1288" cy="1288" r="4"/><circle class="a" cx="1352" cy="1288" r="4"/><circle class="a" cx="1416" cy="1288" r="4"/><circle class="a" cx="1480" cy="1288" r="4"/><circle class="a" cx="1544" cy="1288" r="4"/><circle class="a" cx="1608" cy="1288" r="4"/><circle class="a" cx="1672" cy="1288" r="4"/><circle class="a" cx="1736" cy="1288" r="4"/><circle class="a" cx="1800" cy="1288" r="4"/><circle class="a" cx="1864" cy="1288" r="4"/><circle class="a" cx="1928" cy="1288" r="4"/><circle class="a" cx="8" cy="1352" r="4"/><circle class="a" cx="72" cy="1352" r="4"/><circle class="a" cx="136" cy="1352" r="4"/><circle class="a" cx="200" cy="1352" r="4"/><circle class="a" cx="264" cy="1352" r="4"/><circle class="a" cx="328" cy="1352" r="4"/><circle class="a" cx="392" cy="1352" r="4"/><circle class="a" cx="456" cy="1352" r="4"/><circle class="a" cx="520" cy="1352" r="4"/><circle class="a" cx="584" cy="1352" r="4"/><circle class="a" cx="648" cy="1352" r="4"/><circle class="a" cx="712" cy="1352" r="4"/><circle class="a" cx="776" cy="1352" r="4"/><circle class="a" cx="840" cy="1352" r="4"/><circle class="a" cx="904" cy="1352" r="4"/><circle class="a" cx="968" cy="1352" r="4"/><circle class="a" cx="1032" cy="1352" r="4"/><circle class="a" cx="1096" cy="1352" r="4"/><circle class="a" cx="1160" cy="1352" r="4"/><circle class="a" cx="1224" cy="1352" r="4"/><circle class="a" cx="1288" cy="1352" r="4"/><circle class="a" cx="1352" cy="1352" r="4"/><circle class="a" cx="1416" cy="1352" r="4"/><circle class="a" cx="1480" cy="1352" r="4"/><circle class="a" cx="1544" cy="1352" r="4"/><circle class="a" cx="1608" cy="1352" r="4"/><circle class="a" cx="1672" cy="1352" r="4"/><circle class="a" cx="1736" cy="1352" r="4"/><circle class="a" cx="1800" cy="1352" r="4"/><circle class="a" cx="1864" cy="1352" r="4"/><circle class="a" cx="1928" cy="1352" r="4"/><circle class="a" cx="8" cy="1416" r="4"/><circle class="a" cx="72" cy="1416" r="4"/><circle class="a" cx="136" cy="1416" r="4"/><circle class="a" cx="200" cy="1416" r="4"/><circle class="a" cx="264" cy="1416" r="4"/><circle class="a" cx="328" cy="1416" r="4"/><circle class="a" cx="392" cy="1416" r="4"/><circle class="a" cx="456" cy="1416" r="4"/><circle class="a" cx="520" cy="1416" r="4"/><circle class="a" cx="584" cy="1416" r="4"/><circle class="a" cx="648" cy="1416" r="4"/><circle class="a" cx="712" cy="1416" r="4"/><circle class="a" cx="776" cy="1416" r="4"/><circle class="a" cx="840" cy="1416" r="4"/><circle class="a" cx="904" cy="1416" r="4"/><circle class="a" cx="968" cy="1416" r="4"/><circle class="a" cx="1032" cy="1416" r="4"/><circle class="a" cx="1096" cy="1416" r="4"/><circle class="a" cx="1160" cy="1416" r="4"/><circle class="a" cx="1224" cy="1416" r="4"/><circle class="a" cx="1288" cy="1416" r="4"/><circle class="a" cx="1352" cy="1416" r="4"/><circle class="a" cx="1416" cy="1416" r="4"/><circle class="a" cx="1480" cy="1416" r="4"/><circle class="a" cx="1544" cy="1416" r="4"/><circle class="a" cx="1608" cy="1416" r="4"/><circle class="a" cx="1672" cy="1416" r="4"/><circle class="a" cx="1736" cy="1416" r="4"/><circle class="a" cx="1800" cy="1416" r="4"/><circle class="a" cx="1864" cy="1416" r="4"/><circle class="a" cx="1928" cy="1416" r="4"/><circle class="a" cx="8" cy="1480" r="4"/><circle class="a" cx="72" cy="1480" r="4"/><circle class="a" cx="136" cy="1480" r="4"/><circle class="a" cx="200" cy="1480" r="4"/><circle class="a" cx="264" cy="1480" r="4"/><circle class="a" cx="328" cy="1480" r="4"/><circle class="a" cx="392" cy="1480" r="4"/><circle class="a" cx="456" cy="1480" r="4"/><circle class="a" cx="520" cy="1480" r="4"/><circle class="a" cx="584" cy="1480" r="4"/><circle class="a" cx="648" cy="1480" r="4"/><circle class="a" cx="712" cy="1480" r="4"/><circle class="a" cx="776" cy="1480" r="4"/><circle class="a" cx="840" cy="1480" r="4"/><circle class="a" cx="904" cy="1480" r="4"/><circle class="a" cx="968" cy="1480" r="4"/><circle class="a" cx="1032" cy="1480" r="4"/><circle class="a" cx="1096" cy="1480" r="4"/><circle class="a" cx="1160" cy="1480" r="4"/><circle class="a" cx="1224" cy="1480" r="4"/><circle class="a" cx="1288" cy="1480" r="4"/><circle class="a" cx="1352" cy="1480" r="4"/><circle class="a" cx="1416" cy="1480" r="4"/><circle class="a" cx="1480" cy="1480" r="4"/><circle class="a" cx="1544" cy="1480" r="4"/><circle class="a" cx="1608" cy="1480" r="4"/><circle class="a" cx="1672" cy="1480" r="4"/><circle class="a" cx="1736" cy="1480" r="4"/><circle class="a" cx="1800" cy="1480" r="4"/><circle class="a" cx="1864" cy="1480" r="4"/><circle class="a" cx="1928" cy="1480" r="4"/><circle class="a" cx="8" cy="1544" r="4"/><circle class="a" cx="72" cy="1544" r="4"/><circle class="a" cx="136" cy="1544" r="4"/><circle class="a" cx="200" cy="1544" r="4"/><circle class="a" cx="264" cy="1544" r="4"/><circle class="a" cx="328" cy="1544" r="4"/><circle class="a" cx="392" cy="1544" r="4"/><circle class="a" cx="456" cy="1544" r="4"/><circle class="a" cx="520" cy="1544" r="4"/><circle class="a" cx="584" cy="1544" r="4"/><circle class="a" cx="648" cy="1544" r="4"/><circle class="a" cx="712" cy="1544" r="4"/><circle class="a" cx="776" cy="1544" r="4"/><circle class="a" cx="840" cy="1544" r="4"/><circle class="a" cx="904" cy="1544" r="4"/><circle class="a" cx="968" cy="1544" r="4"/><circle class="a" cx="1032" cy="1544" r="4"/><circle class="a" cx="1096" cy="1544" r="4"/><circle class="a" cx="1160" cy="1544" r="4"/><circle class="a" cx="1224" cy="1544" r="4"/><circle class="a" cx="1288" cy="1544" r="4"/><circle class="a" cx="1352" cy="1544" r="4"/><circle class="a" cx="1416" cy="1544" r="4"/><circle class="a" cx="1480" cy="1544" r="4"/><circle class="a" cx="1544" cy="1544" r="4"/><circle class="a" cx="1608" cy="1544" r="4"/><circle class="a" cx="1672" cy="1544" r="4"/><circle class="a" cx="1736" cy="1544" r="4"/><circle class="a" cx="1800" cy="1544" r="4"/><circle class="a" cx="1864" cy="1544" r="4"/><circle class="a" cx="1928" cy="1544" r="4"/><circle class="a" cx="8" cy="1608" r="4"/><circle class="a" cx="72" cy="1608" r="4"/><circle class="a" cx="136" cy="1608" r="4"/><circle class="a" cx="200" cy="1608" r="4"/><circle class="a" cx="264" cy="1608" r="4"/><circle class="a" cx="328" cy="1608" r="4"/><circle class="a" cx="392" cy="1608" r="4"/><circle class="a" cx="456" cy="1608" r="4"/><circle class="a" cx="520" cy="1608" r="4"/><circle class="a" cx="584" cy="1608" r="4"/><circle class="a" cx="648" cy="1608" r="4"/><circle class="a" cx="712" cy="1608" r="4"/><circle class="a" cx="776" cy="1608" r="4"/><circle class="a" cx="840" cy="1608" r="4"/><circle class="a" cx="904" cy="1608" r="4"/><circle class="a" cx="968" cy="1608" r="4"/><circle class="a" cx="1032" cy="1608" r="4"/><circle class="a" cx="1096" cy="1608" r="4"/><circle class="a" cx="1160" cy="1608" r="4"/><circle class="a" cx="1224" cy="1608" r="4"/><circle class="a" cx="1288" cy="1608" r="4"/><circle class="a" cx="1352" cy="1608" r="4"/><circle class="a" cx="1416" cy="1608" r="4"/><circle class="a" cx="1480" cy="1608" r="4"/><circle class="a" cx="1544" cy="1608" r="4"/><circle class="a" cx="1608" cy="1608" r="4"/><circle class="a" cx="1672" cy="1608" r="4"/><circle class="a" cx="1736" cy="1608" r="4"/><circle class="a" cx="1800" cy="1608" r="4"/><circle class="a" cx="1864" cy="1608" r="4"/><circle class="a" cx="1928" cy="1608" r="4"/><circle class="a" cx="8" cy="1672" r="4"/><circle class="a" cx="72" cy="1672" r="4"/><circle class="a" cx="136" cy="1672" r="4"/><circle class="a" cx="200" cy="1672" r="4"/><circle class="a" cx="264" cy="1672" r="4"/><circle class="a" cx="328" cy="1672" r="4"/><circle class="a" cx="392" cy="1672" r="4"/><circle class="a" cx="456" cy="1672" r="4"/><circle class="a" cx="520" cy="1672" r="4"/><circle class="a" cx="584" cy="1672" r="4"/><circle class="a" cx="648" cy="1672" r="4"/><circle class="a" cx="712" cy="1672" r="4"/><circle class="a" cx="776" cy="1672" r="4"/><circle class="a" cx="840" cy="1672" r="4"/><circle class="a" cx="904" cy="1672" r="4"/><circle class="a" cx="968" cy="1672" r="4"/><circle class="a" cx="1032" cy="1672" r="4"/><circle class="a" cx="1096" cy="1672" r="4"/><circle class="a" cx="1160" cy="1672" r="4"/><circle class="a" cx="1224" cy="1672" r="4"/><circle class="a" cx="1288" cy="1672" r="4"/><circle class="a" cx="1352" cy="1672" r="4"/><circle class="a" cx="1416" cy="1672" r="4"/><circle class="a" cx="1480" cy="1672" r="4"/><circle class="a" cx="1544" cy="1672" r="4"/><circle class="a" cx="1608" cy="1672" r="4"/><circle class="a" cx="1672" cy="1672" r="4"/><circle class="a" cx="1736" cy="1672" r="4"/><circle class="a" cx="1800" cy="1672" r="4"/><circle class="a" cx="1864" cy="1672" r="4"/><circle class="a" cx="1928" cy="1672" r="4"/><circle class="a" cx="8" cy="1736" r="4"/><circle class="a" cx="72" cy="1736" r="4"/><circle class="a" cx="136" cy="1736" r="4"/><circle class="a" cx="200" cy="1736" r="4"/><circle class="a" cx="264" cy="1736" r="4"/><circle class="a" cx="328" cy="1736" r="4"/><circle class="a" cx="392" cy="1736" r="4"/><circle class="a" cx="456" cy="1736" r="4"/><circle class="a" cx="520" cy="1736" r="4"/><circle class="a" cx="584" cy="1736" r="4"/><circle class="a" cx="648" cy="1736" r="4"/><circle class="a" cx="712" cy="1736" r="4"/><circle class="a" cx="776" cy="1736" r="4"/><circle class="a" cx="840" cy="1736" r="4"/><circle class="a" cx="904" cy="1736" r="4"/><circle class="a" cx="968" cy="1736" r="4"/><circle class="a" cx="1032" cy="1736" r="4"/><circle class="a" cx="1096" cy="1736" r="4"/><circle class="a" cx="1160" cy="1736" r="4"/><circle class="a" cx="1224" cy="1736" r="4"/><circle class="a" cx="1288" cy="1736" r="4"/><circle class="a" cx="1352" cy="1736" r="4"/><circle class="a" cx="1416" cy="1736" r="4"/><circle class="a" cx="1480" cy="1736" r="4"/><circle class="a" cx="1544" cy="1736" r="4"/><circle class="a" cx="1608" cy="1736" r="4"/><circle class="a" cx="1672" cy="1736" r="4"/><circle class="a" cx="1736" cy="1736" r="4"/><circle class="a" cx="1800" cy="1736" r="4"/><circle class="a" cx="1864" cy="1736" r="4"/><circle class="a" cx="1928" cy="1736" r="4"/><circle class="a" cx="8" cy="1800" r="4"/><circle class="a" cx="72" cy="1800" r="4"/><circle class="a" cx="136" cy="1800" r="4"/><circle class="a" cx="200" cy="1800" r="4"/><circle class="a" cx="264" cy="1800" r="4"/><circle class="a" cx="328" cy="1800" r="4"/><circle class="a" cx="392" cy="1800" r="4"/><circle class="a" cx="456" cy="1800" r="4"/><circle class="a" cx="520" cy="1800" r="4"/><circle class="a" cx="584" cy="1800" r="4"/><circle class="a" cx="648" cy="1800" r="4"/><circle class="a" cx="712" cy="1800" r="4"/><circle class="a" cx="776" cy="1800" r="4"/><circle class="a" cx="840" cy="1800" r="4"/><circle class="a" cx="904" cy="1800" r="4"/><circle class="a" cx="968" cy="1800" r="4"/><circle class="a" cx="1032" cy="1800" r="4"/><circle class="a" cx="1096" cy="1800" r="4"/><circle class="a" cx="1160" cy="1800" r="4"/><circle class="a" cx="1224" cy="1800" r="4"/><circle class="a" cx="1288" cy="1800" r="4"/><circle class="a" cx="1352" cy="1800" r="4"/><circle class="a" cx="1416" cy="1800" r="4"/><circle class="a" cx="1480" cy="1800" r="4"/><circle class="a" cx="1544" cy="1800" r="4"/><circle class="a" cx="1608" cy="1800" r="4"/><circle class="a" cx="1672" cy="1800" r="4"/><circle class="a" cx="1736" cy="1800" r="4"/><circle class="a" cx="1800" cy="1800" r="4"/><circle class="a" cx="1864" cy="1800" r="4"/><circle class="a" cx="1928" cy="1800" r="4"/><circle class="a" cx="8" cy="1864" r="4"/><circle class="a" cx="72" cy="1864" r="4"/><circle class="a" cx="136" cy="1864" r="4"/><circle class="a" cx="200" cy="1864" r="4"/><circle class="a" cx="264" cy="1864" r="4"/><circle class="a" cx="328" cy="1864" r="4"/><circle class="a" cx="392" cy="1864" r="4"/><circle class="a" cx="456" cy="1864" r="4"/><circle class="a" cx="520" cy="1864" r="4"/><circle class="a" cx="584" cy="1864" r="4"/><circle class="a" cx="648" cy="1864" r="4"/><circle class="a" cx="712" cy="1864" r="4"/><circle class="a" cx="776" cy="1864" r="4"/><circle class="a" cx="840" cy="1864" r="4"/><circle class="a" cx="904" cy="1864" r="4"/><circle class="a" cx="968" cy="1864" r="4"/><circle class="a" cx="1032" cy="1864" r="4"/><circle class="a" cx="1096" cy="1864" r="4"/><circle class="a" cx="1160" cy="1864" r="4"/><circle class="a" cx="1224" cy="1864" r="4"/><circle class="a" cx="1288" cy="1864" r="4"/><circle class="a" cx="1352" cy="1864" r="4"/><circle class="a" cx="1416" cy="1864" r="4"/><circle class="a" cx="1480" cy="1864" r="4"/><circle class="a" cx="1544" cy="1864" r="4"/><circle class="a" cx="1608" cy="1864" r="4"/><circle class="a" cx="1672" cy="1864" r="4"/><circle class="a" cx="1736" cy="1864" r="4"/><circle class="a" cx="1800" cy="1864" r="4"/><circle class="a" cx="1864" cy="1864" r="4"/><circle class="a" cx="1928" cy="1864" r="4"/><circle class="a" cx="8" cy="1928" r="4"/><circle class="a" cx="72" cy="1928" r="4"/><circle class="a" cx="136" cy="1928" r="4"/><circle class="a" cx="200" cy="1928" r="4"/><circle class="a" cx="264" cy="1928" r="4"/><circle class="a" cx="328" cy="1928" r="4"/><circle class="a" cx="392" cy="1928" r="4"/><circle class="a" cx="456" cy="1928" r="4"/><circle class="a" cx="520" cy="1928" r="4"/><circle class="a" cx="584" cy="1928" r="4"/><circle class="a" cx="648" cy="1928" r="4"/><circle class="a" cx="712" cy="1928" r="4"/><circle class="a" cx="776" cy="1928" r="4"/><circle class="a" cx="840" cy="1928" r="4"/><circle class="a" cx="904" cy="1928" r="4"/><circle class="a" cx="968" cy="1928" r="4"/><circle class="a" cx="1032" cy="1928" r="4"/><circle class="a" cx="1096" cy="1928" r="4"/><circle class="a" cx="1160" cy="1928" r="4"/><circle class="a" cx="1224" cy="1928" r="4"/><circle class="a" cx="1288" cy="1928" r="4"/><circle class="a" cx="1352" cy="1928" r="4"/><circle class="a" cx="1416" cy="1928" r="4"/><circle class="a" cx="1480" cy="1928" r="4"/><circle class="a" cx="1544" cy="1928" r="4"/><circle class="a" cx="1608" cy="1928" r="4"/><circle class="a" cx="1672" cy="1928" r="4"/><circle class="a" cx="1736" cy="1928" r="4"/><circle class="a" cx="1800" cy="1928" r="4"/><circle class="a" cx="1864" cy="1928" r="4"/><circle class="a" cx="1928" cy="1928" r="4"/></svg>